<?xml version="1.0" encoding="UTF-8"?>
<svg id="Layer_2" data-name="Layer 2" xmlns="http://www.w3.org/2000/svg" viewBox="0 0 991.66 326.15">
  <g id="Layer_1-2" data-name="Layer 1">
    <g>
      <g>
        <g>
          <g>
            <circle cx="105.3" cy="299.49" r="8.5"/>
            <circle cx="251.19" cy="299.49" r="8.5"/>
            <g>
              <circle cx="211.95" cy="259.75" r="14.17"/>
              <circle cx="144.45" cy="259.76" r="14.17"/>
              <circle cx="178.2" cy="265.43" r="14.17"/>
            </g>
            <g>
              <circle cx="150.09" cy="290.48" r="11.34"/>
              <circle cx="206.26" cy="290.48" r="11.34"/>
              <circle cx="233" cy="281.44" r="11.34"/>
              <circle cx="123.35" cy="281.43" r="11.34"/>
              <circle cx="178.17" cy="293.52" r="11.34"/>
            </g>
            <circle cx="178.17" cy="317.64" r="8.5"/>
            <circle cx="178.18" cy="231.1" r="17.01"/>
          </g>
          <g>
            <circle cx="251.19" cy="26.66" r="8.5"/>
            <circle cx="105.3" cy="26.66" r="8.5"/>
            <g>
              <circle cx="144.54" cy="66.4" r="14.17"/>
              <circle cx="212.04" cy="66.39" r="14.17"/>
              <circle cx="178.29" cy="60.71" r="14.17"/>
            </g>
            <g>
              <circle cx="206.4" cy="35.67" r="11.34"/>
              <circle cx="150.23" cy="35.67" r="11.34"/>
              <circle cx="123.49" cy="44.71" r="11.34"/>
              <circle cx="233.14" cy="44.72" r="11.34"/>
              <circle cx="178.31" cy="32.63" r="11.34"/>
            </g>
            <circle cx="178.31" cy="8.5" r="8.5"/>
            <circle cx="178.31" cy="95.05" r="17.01"/>
          </g>
        </g>
        <g>
          <g>
            <g>
              <circle cx="307.55" cy="129.39" r="14.17"/>
              <circle cx="307.57" cy="196.89" r="14.17"/>
              <circle cx="313.24" cy="163.14" r="14.17"/>
            </g>
            <g>
              <circle cx="341.9" cy="191.25" r="11.34"/>
              <circle cx="341.9" cy="135.08" r="11.34"/>
              <circle cx="332.86" cy="108.34" r="11.34"/>
              <circle cx="332.85" cy="217.99" r="11.34"/>
              <circle cx="344.94" cy="163.16" r="11.34"/>
            </g>
            <circle cx="276.71" cy="163.16" r="17.01"/>
          </g>
          <g>
            <g>
              <circle cx="48.73" cy="129.39" r="14.17"/>
              <circle cx="48.71" cy="196.89" r="14.17"/>
              <circle cx="43.04" cy="163.14" r="14.17"/>
            </g>
            <g>
              <circle cx="14.38" cy="191.25" r="11.34"/>
              <circle cx="14.38" cy="135.08" r="11.34"/>
              <circle cx="23.42" cy="108.34" r="11.34"/>
              <circle cx="23.42" cy="217.99" r="11.34"/>
              <circle cx="11.34" cy="163.16" r="11.34"/>
            </g>
            <circle cx="79.57" cy="163.16" r="17.01"/>
          </g>
        </g>
      </g>
      <g>
        <g>
          <path d="M420.72,82.16h21.53v100.49h-21.53v-100.49Z"/>
          <path d="M465.94,84.75h21.68v17.23h-21.68v-17.23ZM466.08,111.74h21.53v70.92h-21.53v-70.92Z"/>
          <path d="M521.07,127.53h-19.81v-15.79h19.81v-5.89c0-18.52,20.24-27.71,51.11-27.71,12.63,0,24.26,1.58,29.43,2.87v15.22c-5.31-1-16.08-2.3-26.13-2.3-24.55,0-32.87,5.02-32.87,13.35v4.45h61.01v15.79h-61.01v55.12h-21.53v-55.12Z"/>
          <path d="M634.2,154.95v-27.42h-19.67v-15.79h16.37c3.88,0,5.31-1.44,5.74-5.74l1-10.34h18.09v16.08h62.3v15.79h-62.3v25.55c0,9.47,4.88,14.79,36.18,14.79,11.48,0,21.1-.72,25.7-1.29v15.36c-4.16.86-15.07,1.87-28.85,1.87-43.78,0-54.55-13.35-54.55-28.85Z"/>
          <path d="M856.71,151.64h-104.79c1.87,10.19,12.35,18.38,44.65,18.38,28.71,0,38.9-5.31,40.63-10.91h19.52c-1.44,13.06-18.38,25.41-60.29,25.41-52.11,0-66.47-19.09-66.47-36.75,0-22.83,24.12-37.9,65.46-37.9s61.3,13.78,61.3,36.03v5.74ZM837.19,139.73c0-8.61-11.48-15.65-40.91-15.65-25.98,0-39.48,5.89-43.5,16.08h84.41v-.43Z"/>
          <path d="M908.68,146.62l-48.23-34.88h34.02l33.02,24.12,32.59-24.12h29.72l-48.23,34.6,50.1,36.32h-33.88l-34.45-25.27-33.16,25.27h-31.58l50.1-36.03Z"/>
        </g>
        <g>
          <path d="M413.21,215.94h34.18v4.66h-28.84v11.81h23.17v4.2h-23.17v12.04h29.41v4.66h-34.75v-37.36Z"/>
          <path d="M454.03,213.56h5v39.74h-5v-39.74Z"/>
          <path d="M500.98,240.64h-30.55c.4,4.83,3.58,9.03,13.57,9.03,8.52,0,11.64-2.73,12.21-5.45h4.77c-.45,4.54-5.34,9.65-16.98,9.65-14.48,0-18.62-7.55-18.62-14.36,0-8.91,6.87-14.82,18.34-14.82s17.26,5.39,17.26,13.8v2.16ZM496.21,236.83c0-4.71-3.86-7.95-12.43-7.95-7.95,0-12.21,2.9-13.17,8.12h25.61v-.17Z"/>
          <path d="M502.96,225.25h5.96l15.1,23.73h.06l14.88-23.73h5.73l-18,28.05h-5.73l-18-28.05Z"/>
          <path d="M546.96,245.07c0-6.19,5.79-7.38,12.09-7.38h17.83v-.74c0-5.22-3.8-8.06-12.61-8.06s-11.58,2.33-11.58,5.39c0,.17,0,.34.06.74h-4.77c-.06-.51-.06-.85-.06-.97,0-5.56,5.34-9.37,16.35-9.37,11.75,0,17.6,5.17,17.6,12.78v15.84h-5c.17-1.93.28-5.05.34-7.21h-.06c-1.31,4.88-5.85,7.72-15.78,7.72s-14.42-4.03-14.42-8.74ZM576.89,241.43v-.11h-17.2c-4.94,0-7.95.34-7.95,3.63,0,1.99,1.31,4.66,9.94,4.66,10.67,0,15.22-4.09,15.22-8.18Z"/>
          <path d="M591.47,242.4v-12.72h-5.96v-4.43h4.71c1.02,0,1.36-.51,1.48-1.87l.34-4.49h4.43v6.36h17.26v4.43h-17.26v12.32c0,4.54,2.16,7.1,10.28,7.1,2.38,0,5.45-.4,6.87-.74v4.31c-1.08.34-3.97.85-7.04.85-11.13,0-15.1-4.77-15.1-11.13Z"/>
          <path d="M617.65,239.33c0-7.27,5.51-14.65,18.91-14.65s18.91,7.38,18.91,14.65-5.34,14.54-18.91,14.54-18.91-7.21-18.91-14.54ZM650.46,239.33c0-5.22-3.8-10.22-13.91-10.22s-13.91,5-13.91,10.22,3.75,10.11,13.91,10.11,13.91-4.83,13.91-10.11Z"/>
          <path d="M661.59,225.25h5l-.06,8.91h.11c1.82-5.39,5.96-9.48,14.19-9.48,9.25,0,13.23,5.11,13.23,13.63,0,1.93-.06,3.58-.11,4.32h-4.71c0-.68.06-1.93.06-2.9,0-7.1-2.38-10.62-9.37-10.62-8.23,0-13.34,6.47-13.34,13.85v10.33h-5v-28.05Z"/>
          <path d="M719.27,215.94h34.18v4.66h-28.84v11.81h23.17v4.2h-23.17v12.04h29.41v4.66h-34.75v-37.36Z"/>
          <path d="M773.15,238.82l-14.59-13.57h6.98l11.47,10.67,11.3-10.67h6.81l-14.88,13.68,15.44,14.37h-6.98l-12.26-11.41-11.58,11.41h-6.87l15.16-14.48Z"/>
          <path d="M800.74,225.25h5l-.06,7.95h.06c1.82-5.51,6.87-8.52,15.1-8.52,11.58,0,18.28,5.96,18.28,14.31,0,9.42-7.1,14.88-17.88,14.88-9.37,0-13.57-2.5-15.67-7.04h-.06c.11,1.93.23,4.94.23,6.25v11.47h-5v-39.29ZM834.12,238.99c0-5.56-4.54-9.88-13.51-9.88s-14.71,4.88-14.88,10.62v.85c0,4.09,5,8.86,14.99,8.86,8.57,0,13.4-3.52,13.4-10.45Z"/>
          <path d="M880.28,240.64h-30.55c.4,4.83,3.58,9.03,13.57,9.03,8.52,0,11.64-2.73,12.21-5.45h4.77c-.45,4.54-5.34,9.65-16.98,9.65-14.48,0-18.62-7.55-18.62-14.36,0-8.91,6.87-14.82,18.34-14.82s17.26,5.39,17.26,13.8v2.16ZM875.51,236.83c0-4.71-3.86-7.95-12.43-7.95-7.95,0-12.21,2.9-13.17,8.12h25.61v-.17Z"/>
          <path d="M886.41,225.25h5l-.06,8.91h.11c1.82-5.39,5.96-9.48,14.19-9.48,9.25,0,13.23,5.11,13.23,13.63,0,1.93-.06,3.58-.11,4.32h-4.71c0-.68.06-1.93.06-2.9,0-7.1-2.38-10.62-9.37-10.62-8.23,0-13.34,6.47-13.34,13.85v10.33h-5v-28.05Z"/>
          <path d="M928.19,242.4v-12.72h-5.96v-4.43h4.71c1.02,0,1.36-.51,1.48-1.87l.34-4.49h4.43v6.36h17.26v4.43h-17.26v12.32c0,4.54,2.16,7.1,10.28,7.1,2.38,0,5.45-.4,6.87-.74v4.31c-1.08.34-3.97.85-7.04.85-11.13,0-15.1-4.77-15.1-11.13Z"/>
          <path d="M954.93,243.99h4.77c0,2.78,1.53,5.68,11.7,5.68s12.49-2.1,12.49-4.71c0-1.31-.46-2.33-2.27-2.84-1.82-.51-6.81-.62-10.9-.74-6.02-.17-10.5-.85-12.72-1.99-2.1-1.08-3.07-3.24-3.07-5.51,0-5.51,6.13-9.2,16.47-9.2,13.17,0,15.9,4.94,15.9,10.05h-4.77c-.06-3.41-1.76-5.85-11.01-5.85-7.5,0-11.58,1.48-11.58,4.83,0,1.25.51,2.16,2.21,2.67,2.04.62,6.25.68,11.24.91,5.62.23,9.2.51,11.7,1.53,2.67,1.14,3.8,3.52,3.8,6.02,0,4.14-3.35,9.03-17.49,9.03s-16.47-5.73-16.47-9.88Z"/>
        </g>
      </g>
    </g>
  </g>
</svg>