<?xml version="1.0" encoding="UTF-8"?>
<svg id="Layer_2" data-name="Layer 2" xmlns="http://www.w3.org/2000/svg" viewBox="0 0 989.17 326.15">
  <defs>
    <style>
      .cls-1 {
        fill: #fff;
      }
    </style>
  </defs>
  <g id="Layer_1-2" data-name="Layer 1">
    <g>
      <g>
        <g>
          <g>
            <circle class="cls-1" cx="738.19" cy="299.49" r="8.5"/>
            <circle class="cls-1" cx="884.09" cy="299.49" r="8.5"/>
            <g>
              <circle class="cls-1" cx="844.85" cy="259.75" r="14.17"/>
              <circle class="cls-1" cx="777.34" cy="259.76" r="14.17"/>
              <circle class="cls-1" cx="811.1" cy="265.43" r="14.17"/>
            </g>
            <g>
              <circle class="cls-1" cx="782.99" cy="290.48" r="11.34"/>
              <circle class="cls-1" cx="839.15" cy="290.48" r="11.34"/>
              <circle class="cls-1" cx="865.9" cy="281.44" r="11.34"/>
              <circle class="cls-1" cx="756.24" cy="281.43" r="11.34"/>
              <circle class="cls-1" cx="811.07" cy="293.52" r="11.34"/>
            </g>
            <circle class="cls-1" cx="811.07" cy="317.64" r="8.5"/>
            <circle class="cls-1" cx="811.07" cy="231.1" r="17.01"/>
          </g>
          <g>
            <circle class="cls-1" cx="884.09" cy="26.66" r="8.5"/>
            <circle class="cls-1" cx="738.19" cy="26.66" r="8.5"/>
            <g>
              <circle class="cls-1" cx="777.43" cy="66.4" r="14.17"/>
              <circle class="cls-1" cx="844.94" cy="66.39" r="14.17"/>
              <circle class="cls-1" cx="811.18" cy="60.71" r="14.17"/>
            </g>
            <g>
              <circle class="cls-1" cx="839.29" cy="35.67" r="11.34"/>
              <circle class="cls-1" cx="783.12" cy="35.67" r="11.34"/>
              <circle class="cls-1" cx="756.38" cy="44.71" r="11.34"/>
              <circle class="cls-1" cx="866.04" cy="44.72" r="11.34"/>
              <circle class="cls-1" cx="811.21" cy="32.63" r="11.34"/>
            </g>
            <circle class="cls-1" cx="811.21" cy="8.5" r="8.5"/>
            <circle class="cls-1" cx="811.21" cy="95.05" r="17.01"/>
          </g>
        </g>
        <g>
          <g>
            <g>
              <circle class="cls-1" cx="940.45" cy="129.39" r="14.17"/>
              <circle class="cls-1" cx="940.46" cy="196.89" r="14.17"/>
              <circle class="cls-1" cx="946.13" cy="163.14" r="14.17"/>
            </g>
            <g>
              <circle class="cls-1" cx="974.79" cy="191.25" r="11.34"/>
              <circle class="cls-1" cx="974.8" cy="135.08" r="11.34"/>
              <circle class="cls-1" cx="965.75" cy="108.34" r="11.34"/>
              <circle class="cls-1" cx="965.75" cy="217.99" r="11.34"/>
              <circle class="cls-1" cx="977.83" cy="163.16" r="11.34"/>
            </g>
            <circle class="cls-1" cx="909.6" cy="163.16" r="17.01"/>
          </g>
          <g>
            <g>
              <circle class="cls-1" cx="681.62" cy="129.39" r="14.17"/>
              <circle class="cls-1" cx="681.61" cy="196.89" r="14.17"/>
              <circle class="cls-1" cx="675.94" cy="163.14" r="14.17"/>
            </g>
            <g>
              <circle class="cls-1" cx="647.27" cy="191.25" r="11.34"/>
              <circle class="cls-1" cx="647.27" cy="135.08" r="11.34"/>
              <circle class="cls-1" cx="656.32" cy="108.34" r="11.34"/>
              <circle class="cls-1" cx="656.32" cy="217.99" r="11.34"/>
              <circle class="cls-1" cx="644.23" cy="163.16" r="11.34"/>
            </g>
            <circle class="cls-1" cx="712.47" cy="163.16" r="17.01"/>
          </g>
        </g>
      </g>
      <g>
        <g>
          <path class="cls-1" d="M552.54,69.32v75.48c0,2.27-.35,3.61-1.06,4.03-.71.42-2.19.64-4.46.64h-12.03c-.66,0-1.44-.02-2.33-.07-.9-.05-1.82-.16-2.76-.35-.94-.19-1.79-.45-2.55-.78-.76-.33-1.27-.73-1.56-1.2v-37.65c0-.75-.26-1.39-.78-1.91-.52-.52-1.16-.78-1.91-.78h-12.31c-.85,0-1.54.26-2.05.78-.52.52-.78,1.16-.78,1.91v35.25c0,1.13-.28,2.01-.85,2.62-.57.61-1.25,1.09-2.05,1.42-.8.33-1.68.54-2.62.64-.94.1-1.84.14-2.69.14h-95.88v-46.57c0-.75-.14-1.34-.42-1.77-.28-.42-.94-.78-1.98-1.06-1.23-.28-2.74-.57-4.53-.85-1.79-.28-3.7-.54-5.73-.78-2.03-.23-4.13-.4-6.3-.5-2.17-.09-4.25-.14-6.23-.14-5.47,0-10.45.69-14.93,2.05-4.48,1.37-8.33,3.38-11.54,6.02-3.21,2.64-5.69,5.94-7.43,9.91-1.75,3.96-2.62,8.54-2.62,13.73v2.69c0,4.06.5,7.53,1.49,10.4.99,2.88,2.38,5.17,4.18,6.87h-18.12c-.66,0-1.44-.02-2.34-.07-.9-.05-1.82-.16-2.76-.35-.94-.19-1.79-.45-2.55-.78-.76-.33-1.27-.73-1.56-1.2v-37.65c0-.75-.26-1.39-.78-1.91-.52-.52-1.16-.78-1.91-.78h-12.32c-.85,0-1.54.26-2.05.78-.52.52-.78,1.16-.78,1.91v35.25c0,1.13-.28,2.01-.85,2.62-.57.61-1.25,1.09-2.05,1.42-.8.33-1.68.54-2.62.64-.94.1-1.84.14-2.69.14h-46.57c0-.66.02-1.46.07-2.41.05-.94.07-1.91.07-2.9v-7.15c-.19-12.08-3.82-21.26-10.9-27.53-7.08-6.28-17.93-9.41-32.56-9.41-1.98,0-4.3.05-6.94.14-2.64.09-5.9.24-9.77.42,0-.47.16-1.18.5-2.12.33-.94.73-2,1.2-3.18.47-1.18.99-2.38,1.56-3.61.57-1.23,1.13-2.36,1.7-3.4l10.04-19h-18.51l-7.1,13.34c-1.51,2.74-2.83,5.29-3.96,7.64-1.13,2.36-2.1,4.62-2.9,6.79-.8,2.17-1.39,4.34-1.77,6.51-.38,2.17-.57,4.44-.57,6.79v.78c0,.42.02.9.07,1.42.05.52.09,1.02.14,1.49.05.47.07.8.07.99.09,1.51,1.18,2.26,3.26,2.26h30.15c4.43,0,8.37.38,11.82,1.13,3.44.76,6.37,1.98,8.78,3.68,2.41,1.7,4.22,3.94,5.45,6.72,1.23,2.78,1.84,6.25,1.84,10.4,0,1.51-.02,3.21-.07,5.1-.05,1.89-.12,3.59-.21,5.1h-75.17c-.66,0-1.44-.02-2.34-.07-.9-.05-1.79-.16-2.69-.35-.9-.19-1.72-.45-2.48-.78-.76-.33-1.27-.73-1.56-1.2v-41.33c0-.85-.28-1.56-.85-2.12-.57-.57-1.23-.85-1.98-.85h-12.17c-.76,0-1.42.28-1.98.85-.57.57-.85,1.27-.85,2.12v39.64c0,1.13-.26,2.01-.78,2.62-.52.61-1.2,1.06-2.05,1.34-.85.28-1.77.47-2.76.57-.99.1-1.91.14-2.76.14h-1.13c-1.89,0-3.73-.14-5.52-.42-1.79-.28-2.97-.99-3.54-2.12v-36.66c0-.75-.26-1.39-.78-1.91-.52-.52-1.16-.78-1.91-.78h-12.03c-.76,0-1.42.26-1.98.78-.57.52-.85,1.16-.85,1.91v34.54c0,1.04-.24,1.86-.71,2.48-.47.61-1.09,1.09-1.84,1.42-.76.33-1.56.54-2.41.64-.85.1-1.7.14-2.55.14h-2.26c-.66,0-1.44-.02-2.34-.07-.9-.05-1.77-.16-2.62-.35-.85-.19-1.63-.45-2.34-.78-.71-.33-1.2-.78-1.49-1.34v-31.99c0-.85-.26-1.56-.78-2.12-.52-.57-1.2-.85-2.05-.85h-12.17c-.76,0-1.42.28-1.98.85-.57.57-.85,1.27-.85,2.12v35.25c0,3.87-.02,7.53-.07,10.97-.05,3.45-.12,7.48-.21,12.1-1.89.38-3.61.61-5.17.71-1.56.09-3.09.14-4.6.14-6.32,0-11.3-.8-14.93-2.41-3.63-1.61-6.37-3.89-8.21-6.87-1.84-2.97-3.02-6.58-3.54-10.83-.52-4.25-.78-9.01-.78-14.3,0-1.32.05-3.16.14-5.52.09-2.36.23-4.58.42-6.65.19-1.79-.61-2.69-2.41-2.69H4.81c-1.04,0-1.75.21-2.12.64-.38.42-.66,1.16-.85,2.19-.28,1.51-.54,3.23-.78,5.17-.24,1.94-.42,3.87-.57,5.8-.14,1.94-.26,3.75-.35,5.45-.1,1.7-.14,3.02-.14,3.96,0,7.64.87,14.25,2.62,19.82,1.74,5.57,4.46,10.14,8.14,13.73,3.68,3.59,8.37,6.23,14.08,7.93,5.71,1.7,12.53,2.55,20.45,2.55,8.68,0,16.56-.99,23.64-2.97,2.07-.57,3.16-1.65,3.26-3.26.19-2.55.31-5.69.35-9.41.05-3.73.07-7.43.07-11.11,1.04.66,2.24,1.06,3.61,1.2,1.37.14,2.52.21,3.47.21h2.41c3.59,0,7.01-.3,10.26-.92,3.26-.61,6.02-1.82,8.28-3.61,2.45,1.89,5.1,3.16,7.93,3.82,2.83.66,5.95.99,9.34.99h1.7c3.4,0,6.56-.33,9.48-.99,2.92-.66,5.47-1.93,7.64-3.82,1.32.94,2.78,1.72,4.39,2.34,1.6.61,3.26,1.11,4.95,1.49,1.7.38,3.37.64,5.03.78,1.65.14,3.18.21,4.6.21h136.04c1.51,0,3.14-.07,4.88-.21,1.74-.14,3.49-.4,5.24-.78,1.74-.38,3.42-.87,5.03-1.49,1.6-.61,3.07-1.39,4.39-2.34,2.45,1.98,5.52,3.28,9.2,3.89,3.68.61,7.31.92,10.9.92h165.67c1.51,0,3.14-.07,4.88-.21,1.75-.14,3.49-.4,5.24-.78,1.74-.38,3.42-.87,5.03-1.49,1.6-.61,3.07-1.39,4.39-2.34,2.45,1.98,5.52,3.28,9.2,3.89,3.68.61,7.31.92,10.9.92h6.94c1.89,0,3.99-.02,6.3-.07,2.31-.05,4.55-.14,6.72-.28,2.17-.14,4.18-.3,6.02-.5,1.84-.19,3.28-.42,4.32-.71,1.13-.47,1.91-1.04,2.34-1.7.42-.66.73-1.46.92-2.41.28-2.55.47-5.35.57-8.42.09-3.07.14-5.87.14-8.42v-75.77h-18.4ZM386.02,150.05h-10.76c-5.38,0-9.27-1.46-11.68-4.39-2.41-2.92-3.61-7.17-3.61-12.74v-2.55c0-10.95,5.61-16.42,16.85-16.42,3.3,0,6.37.14,9.2.42v35.67Z"/>
          <rect class="cls-1" x="518.13" y="173.8" width="20.13" height="16"/>
          <rect class="cls-1" x="492.4" y="173.8" width="20.13" height="16"/>
          <rect class="cls-1" x="298.94" y="69.15" width="20.13" height="16"/>
          <rect class="cls-1" x="367.54" y="69.15" width="20.13" height="16"/>
          <rect class="cls-1" x="273.21" y="69.15" width="20.13" height="16"/>
        </g>
        <g>
          <path class="cls-1" d="M36.51,256.88c-2.02,0-3.71-.42-5.09-1.25-1.38-.84-2.75-2.33-4.13-4.5-.54,1.33-1.24,2.39-2.1,3.17-.86.79-1.82,1.36-2.88,1.73-1.06.37-2.18.6-3.36.7-1.18.1-2.36.15-3.54.15H4.2v-6.12h13.2c2.07,0,3.65-.26,4.76-.77,1.11-.52,1.66-1.26,1.66-2.25,0-.93-.25-1.87-.74-2.8-.49-.93-1.11-1.94-1.84-3.02l-7.82-11.58,5.68-3.54,8.85,14.68c.98,1.62,1.84,3.02,2.58,4.2.74,1.18,1.44,2.14,2.1,2.88.66.74,1.3,1.29,1.92,1.66.61.37,1.27.55,1.95.55,1.97,0,2.95.98,2.95,2.95,0,1.23-.23,2.07-.7,2.51-.47.44-1.22.66-2.25.66Z"/>
          <path class="cls-1" d="M36.51,256.88c-1.97,0-2.95-.98-2.95-2.95,0-1.23.23-2.07.7-2.51.47-.44,1.22-.66,2.25-.66h9.07c-.89-.93-1.62-2.14-2.21-3.61-.59-1.48-.88-3.15-.88-5.02,0-2.56.48-4.77,1.44-6.64.96-1.87,2.21-3.42,3.76-4.65,1.55-1.23,3.27-2.14,5.16-2.73,1.89-.59,3.8-.89,5.72-.89,1.72,0,3.22.1,4.5.3s2.19.42,2.73.66v6.56c-.93-.29-1.94-.55-3.02-.77-1.08-.22-2.41-.33-3.98-.33-3.1,0-5.56.76-7.38,2.29-1.82,1.52-2.73,3.61-2.73,6.27,0,2.51.79,4.56,2.36,6.16,1.57,1.6,3.96,2.4,7.15,2.4h10.77v6.12h-32.45Z"/>
          <path class="cls-1" d="M93.97,253.71c0,1.23-.23,2.07-.7,2.51-.47.44-1.22.66-2.25.66h-1.92c-1.57,0-3.01-.16-4.31-.48-1.3-.32-2.41-.87-3.32-1.66-.91-.79-1.62-1.83-2.14-3.13-.52-1.3-.77-2.94-.77-4.91v-42.48h6.05v40.86c0,2.07.32,3.53.96,4.39.64.86,2.07,1.29,4.28,1.29h1.18c1.97,0,2.95.98,2.95,2.95Z"/>
          <path class="cls-1" d="M91.01,256.88c-1.97,0-2.95-.98-2.95-2.95,0-1.23.23-2.07.7-2.51.47-.44,1.22-.66,2.25-.66h10.92c1.97,0,2.95.98,2.95,2.95,0,1.23-.23,2.07-.7,2.51-.47.44-1.22.66-2.25.66h-10.92Z"/>
          <path class="cls-1" d="M101.93,256.88c-1.97,0-2.95-.98-2.95-2.95,0-1.23.23-2.07.7-2.51.47-.44,1.22-.66,2.25-.66h10.92c1.97,0,2.95.98,2.95,2.95,0,1.23-.23,2.07-.7,2.51-.47.44-1.22.66-2.25.66h-10.92Z"/>
          <path class="cls-1" d="M112.85,256.88c-1.97,0-2.95-.98-2.95-2.95,0-1.23.23-2.07.7-2.51.47-.44,1.22-.66,2.25-.66h10.92c1.97,0,2.95.98,2.95,2.95,0,1.23-.23,2.07-.7,2.51-.47.44-1.22.66-2.25.66h-10.92Z"/>
          <path class="cls-1" d="M123.76,256.88c-1.97,0-2.95-.98-2.95-2.95,0-1.23.23-2.07.7-2.51.47-.44,1.22-.66,2.25-.66h10.92c1.97,0,2.95.98,2.95,2.95,0,1.23-.23,2.07-.7,2.51-.47.44-1.22.66-2.25.66h-10.92Z"/>
          <path class="cls-1" d="M134.68,256.88c-1.97,0-2.95-.98-2.95-2.95,0-1.23.23-2.07.7-2.51.47-.44,1.22-.66,2.25-.66h10.92c1.97,0,2.95.98,2.95,2.95,0,1.23-.23,2.07-.7,2.51-.47.44-1.22.66-2.25.66h-10.92Z"/>
          <path class="cls-1" d="M145.59,256.88c-1.97,0-2.95-.98-2.95-2.95,0-1.23.23-2.07.7-2.51.47-.44,1.22-.66,2.25-.66h10.92c1.97,0,2.95.98,2.95,2.95,0,1.23-.23,2.07-.7,2.51-.47.44-1.22.66-2.25.66h-10.92Z"/>
          <path class="cls-1" d="M156.51,256.88c-1.97,0-2.95-.98-2.95-2.95,0-1.23.23-2.07.7-2.51.47-.44,1.22-.66,2.25-.66h10.92c1.97,0,2.95.98,2.95,2.95,0,1.23-.23,2.07-.7,2.51-.47.44-1.22.66-2.25.66h-10.92Z"/>
          <path class="cls-1" d="M167.43,256.88c-1.97,0-2.95-.98-2.95-2.95,0-1.23.23-2.07.7-2.51.47-.44,1.22-.66,2.25-.66h10.92c1.97,0,2.95.98,2.95,2.95,0,1.23-.23,2.07-.7,2.51-.47.44-1.22.66-2.25.66h-10.92Z"/>
          <path class="cls-1" d="M203.71,256.88c-1.52,0-2.78-.13-3.76-.41-.98-.27-1.78-.63-2.4-1.07-.62-.44-1.11-.96-1.48-1.55-.37-.59-.7-1.18-1-1.77-.44,1.03-1.03,1.86-1.77,2.47-.74.62-1.67,1.09-2.8,1.44-1.13.34-2.5.58-4.09.7-1.6.12-3.48.18-5.64.18h-2.43c-1.97,0-2.95-.98-2.95-2.95,0-1.23.23-2.07.7-2.51.47-.44,1.22-.66,2.25-.66h2.58c1.62,0,3-.05,4.13-.15,1.13-.1,2.03-.33,2.69-.7.66-.37,1.14-.91,1.44-1.62.29-.71.44-1.68.44-2.91v-13.2h6.05v10.47c0,1.23.05,2.35.15,3.36.1,1.01.33,1.86.7,2.54.37.69.9,1.23,1.59,1.62.69.39,1.62.59,2.8.59.93-2.7,2.22-5.43,3.87-8.2,1.65-2.77,3.61-5.27,5.9-7.5,2.29-2.23,4.88-4.04,7.78-5.44s6.05-2.09,9.44-2.09c4.97,0,8.81,1.47,11.54,4.41,2.73,2.94,4.09,7.11,4.09,12.5v6.32h5.61c1.97,0,2.95.98,2.95,2.95,0,1.23-.23,2.07-.7,2.51-.47.44-1.22.66-2.25.66h-45.43ZM237.49,250.76v-4.94c0-1.77-.18-3.4-.55-4.9-.37-1.5-.97-2.79-1.81-3.87-.84-1.08-1.93-1.92-3.28-2.51-1.35-.59-2.99-.89-4.9-.89-2.36,0-4.56.52-6.6,1.55-2.04,1.03-3.91,2.36-5.61,3.98-1.7,1.62-3.16,3.46-4.39,5.49-1.23,2.04-2.21,4.07-2.95,6.08h30.09Z"/>
          <path class="cls-1" d="M294.43,256.88c-1.87,0-3.49-.37-4.87-1.11-1.38-.74-2.48-1.99-3.32-3.76v-.15c-.93,1.87-2.3,3.33-4.09,4.39-1.8,1.06-4.04,1.59-6.75,1.59-2.31,0-4.65-.39-7.01-1.18-2.36-.79-4.79-2.11-7.3-3.98-.64.98-1.29,1.76-1.95,2.32-.66.57-1.36.98-2.1,1.25-.74.27-1.5.44-2.29.52-.79.07-1.62.11-2.51.11h-3.17c-1.97,0-2.95-.99-2.95-2.96,0-1.23.23-2.07.7-2.51.47-.44,1.22-.67,2.25-.67h3.02c.59,0,1.2-.07,1.84-.22.64-.15,1.28-.47,1.92-.96.64-.49,1.27-1.17,1.88-2.03.61-.86,1.19-2.03,1.73-3.51,1.13-3.16,2.32-5.71,3.58-7.65s2.53-3.45,3.83-4.51c1.3-1.06,2.63-1.76,3.98-2.11,1.35-.34,2.69-.52,4.02-.52,1.87,0,3.59.36,5.16,1.07,1.57.71,2.94,1.73,4.09,3.03s2.07,2.86,2.73,4.66c.66,1.8,1,3.81,1,6.03,0,.35-.01.68-.04,1s-.04.63-.04.92c.49,1.58,1.22,2.77,2.18,3.59s2.45,1.22,4.46,1.22,2.95.99,2.95,2.96c0,1.23-.23,2.07-.7,2.51-.47.44-1.22.67-2.25.67ZM281.82,243.83c0-1.08-.16-2.14-.48-3.17-.32-1.03-.79-1.94-1.4-2.73-.62-.79-1.36-1.41-2.25-1.88-.89-.47-1.92-.7-3.1-.7-2.07,0-3.96.91-5.68,2.73-1.72,1.82-3.34,5.02-4.87,9.59,1.82,1.18,3.63,2.13,5.42,2.84,1.79.71,3.63,1.07,5.5,1.07,2.07,0,3.72-.59,4.98-1.77,1.25-1.18,1.88-3.17,1.88-5.97Z"/>
          <path class="cls-1" d="M294.51,256.88c-1.97,0-2.95-.98-2.95-2.95,0-1.23.23-2.07.7-2.51.47-.44,1.22-.66,2.25-.66h11.51v-46.54h6.05v52.66h-17.55Z"/>
          <path class="cls-1" d="M328.44,204.22v52.66h-6.05v-52.66h6.05Z"/>
          <path class="cls-1" d="M378.22,256.88h-22.2v-5.31h5.38c-1.62-1.92-2.43-4.23-2.43-6.93,0-1.87.31-3.5.92-4.91.61-1.4,1.43-2.56,2.43-3.47,1.01-.91,2.16-1.6,3.47-2.06,1.3-.47,2.64-.7,4.02-.7s2.66.06,3.69.18c1.03.12,1.75.26,2.14.41v5.75c-1.48-.64-3.22-.96-5.24-.96-1.13,0-2.08.17-2.84.52-.76.34-1.4.8-1.92,1.37s-.88,1.21-1.11,1.92c-.22.71-.33,1.44-.33,2.18,0,1.87.56,3.46,1.7,4.76,1.13,1.3,2.92,1.95,5.38,1.95h6.93v5.31Z"/>
          <path class="cls-1" d="M391.72,204.22v52.66h-6.05v-52.66h6.05Z"/>
          <path class="cls-1" d="M419.82,256.88c-1.62,0-2.98-.37-4.06-1.11-1.08-.74-1.89-1.6-2.43-2.58,0,3.54-.22,6.53-.66,8.96-.44,2.43-1.24,4.4-2.4,5.9-1.16,1.5-2.77,2.58-4.83,3.25-2.07.66-4.75,1-8.04,1v-6.12c2.41,0,4.29-.26,5.64-.77,1.35-.52,2.36-1.35,3.02-2.51s1.06-2.63,1.18-4.42c.12-1.79.18-3.97.18-6.53v-19.77h5.97v10.47c0,2.51.45,4.49,1.36,5.94.91,1.45,2.59,2.18,5.05,2.18,1.97,0,2.95.98,2.95,2.95,0,1.23-.23,2.07-.7,2.51-.47.44-1.22.66-2.25.66Z"/>
          <path class="cls-1" d="M419.82,256.88c-1.97,0-2.95-.98-2.95-2.95,0-1.23.23-2.07.7-2.51.47-.44,1.22-.66,2.25-.66h10.92c1.97,0,2.95.98,2.95,2.95,0,1.23-.23,2.07-.7,2.51-.47.44-1.22.66-2.25.66h-10.92Z"/>
          <path class="cls-1" d="M430.73,256.88c-1.97,0-2.95-.98-2.95-2.95,0-1.23.23-2.07.7-2.51.47-.44,1.22-.66,2.25-.66h10.92c1.97,0,2.95.98,2.95,2.95,0,1.23-.23,2.07-.7,2.51-.47.44-1.22.66-2.25.66h-10.92Z"/>
          <path class="cls-1" d="M441.65,256.88c-1.97,0-2.95-.98-2.95-2.95,0-1.23.23-2.07.7-2.51.47-.44,1.22-.66,2.25-.66h10.92c1.97,0,2.95.98,2.95,2.95,0,1.23-.23,2.07-.7,2.51-.47.44-1.22.66-2.25.66h-10.92Z"/>
          <path class="cls-1" d="M452.57,256.88c-1.97,0-2.95-.98-2.95-2.95,0-1.23.23-2.07.7-2.51.47-.44,1.22-.66,2.25-.66h10.92c1.97,0,2.95.98,2.95,2.95,0,1.23-.23,2.07-.7,2.51-.47.44-1.22.66-2.25.66h-10.92Z"/>
          <path class="cls-1" d="M463.48,256.88c-1.97,0-2.95-.98-2.95-2.95,0-1.23.23-2.07.7-2.51.47-.44,1.22-.66,2.25-.66h10.92c1.97,0,2.95.98,2.95,2.95,0,1.23-.23,2.07-.7,2.51-.47.44-1.22.66-2.25.66h-10.92Z"/>
          <path class="cls-1" d="M474.4,256.88c-1.97,0-2.95-.98-2.95-2.95,0-1.23.23-2.07.7-2.51.47-.44,1.22-.66,2.25-.66h10.92c1.97,0,2.95.98,2.95,2.95,0,1.23-.23,2.07-.7,2.51-.47.44-1.22.66-2.25.66h-10.92Z"/>
          <path class="cls-1" d="M485.31,256.88c-1.97,0-2.95-.98-2.95-2.95,0-1.23.23-2.07.7-2.51.47-.44,1.22-.66,2.25-.66h10.92c1.97,0,2.95.98,2.95,2.95,0,1.23-.23,2.07-.7,2.51-.47.44-1.22.66-2.25.66h-10.92Z"/>
          <path class="cls-1" d="M496.23,256.88c-1.97,0-2.95-.98-2.95-2.95,0-1.23.23-2.07.7-2.51.47-.44,1.22-.66,2.25-.66h10.92c1.97,0,2.95.98,2.95,2.95,0,1.23-.23,2.07-.7,2.51-.47.44-1.22.66-2.25.66h-10.92Z"/>
          <path class="cls-1" d="M507.15,256.88c-1.97,0-2.95-.98-2.95-2.95,0-1.23.23-2.07.7-2.51.47-.44,1.22-.66,2.25-.66h4.94c1.18,0,2.19-.05,3.02-.15.83-.1,1.54-.33,2.1-.7.57-.37.98-.91,1.25-1.62.27-.71.41-1.68.41-2.91v-16.89h6.05v14.16c0,1.23.08,2.35.26,3.36.17,1.01.5,1.86,1,2.54.49.69,1.15,1.23,1.99,1.62.84.39,1.89.59,3.17.59,1.97,0,2.95.98,2.95,2.95,0,1.23-.23,2.07-.7,2.51-.47.44-1.22.66-2.25.66-1.92,0-3.47-.45-4.65-1.36-1.18-.91-1.97-2.05-2.36-3.43-.89,2.02-2.28,3.32-4.17,3.91-1.89.59-4.22.88-6.97.88h-6.05ZM516.66,267.87c0-1.08.38-2,1.14-2.77.76-.76,1.68-1.14,2.77-1.14s2,.38,2.77,1.14,1.14,1.68,1.14,2.77-.38,2-1.14,2.77c-.76.76-1.68,1.14-2.77,1.14s-2-.38-2.77-1.14-1.14-1.69-1.14-2.77Z"/>
          <path class="cls-1" d="M560.91,250.76c0-3.15-.42-5.8-1.25-7.96-.84-2.16-1.97-3.92-3.39-5.27-1.43-1.35-3.09-2.33-4.98-2.95-1.89-.61-3.92-.92-6.08-.92-1.43,0-2.94.14-4.54.41-1.6.27-2.91.55-3.95.85v-5.84c.98-.29,2.29-.62,3.91-.98,1.62-.36,3.39-.55,5.31-.55,3.74,0,6.96.64,9.66,1.91,2.7,1.28,4.92,3,6.64,5.19,1.72,2.18,2.99,4.73,3.8,7.65s1.22,6,1.22,9.23v5.37h-35.92c-1.97,0-2.95-.98-2.95-2.95,0-1.23.23-2.07.7-2.51.47-.44,1.22-.66,2.25-.66h29.58ZM542.62,216.17c0-1.08.38-2,1.14-2.77.76-.76,1.68-1.14,2.77-1.14s2,.38,2.77,1.14c.76.76,1.14,1.69,1.14,2.77s-.38,2-1.14,2.77c-.76.76-1.69,1.14-2.77,1.14s-2-.38-2.77-1.14c-.76-.76-1.14-1.68-1.14-2.77Z"/>
        </g>
      </g>
    </g>
  </g>
</svg>